<?xml version="1.0" encoding="iso-8859-1"?>
<!-- Generator: Adobe Illustrator 19.0.0, SVG Export Plug-In . SVG Version: 6.00 Build 0)  -->
<svg version="1.1" id="Layer_1" xmlns="http://www.w3.org/2000/svg" xmlns:xlink="http://www.w3.org/1999/xlink" x="0px" y="0px"
	 viewBox="0 0 512.001 512.001" style="enable-background:new 0 0 512.001 512.001;" xml:space="preserve">
<path style="fill:#E9F2F4;" d="M418.683,425.769H95.322c-23.812,0-43.116-19.304-43.116-43.116V129.348
	c0-23.812,19.304-43.116,43.116-43.116h323.361c23.812,0,43.116,19.304,43.116,43.116v253.305
	C461.799,406.465,442.495,425.769,418.683,425.769z"/>
<path style="fill:#CFDFE2;" d="M461.799,143.098v239.781c0,23.687-19.303,42.888-43.115,42.888H95.321
	c-23.812,0-43.115-19.202-43.115-42.888V139.997l182.188,108.671c16.503,9.843,37.131,9.77,53.562-0.19L461.799,143.098z"/>
<path style="fill:#84A7B7;" d="M502.195,278.276l-31.929,42.578c-1.603,2.137-4.899,3.016-7.362,1.963
	c-1.182-0.507-2.011-1.399-2.303-2.483l-4.731-17.561L84.565,402.795l-5.227,1.393c-4.886,1.302-9.799,1.924-14.632,1.924
	c-24.985,0-47.907-16.607-54.674-41.729c-8.067-29.948,9.837-60.842,39.917-68.917l2.259-0.66v16.766
	c-20.3,6.545-32.143,27.913-26.557,48.649c5.768,21.415,27.971,34.174,49.504,28.431l5.205-1.387l371.326-100.028l-9.766-36.254
	c-0.292-1.083-0.024-2.269,0.746-3.296c1.603-2.137,4.899-3.016,7.362-1.962l49.053,20.993
	C504.007,268.825,505.401,274.001,502.195,278.276z"/>
<path style="fill:#4C4C4C;" d="M410.089,338.728c1.148,4.315-1.417,8.743-5.732,9.893l-104.25,27.751
	c-0.696,0.185-1.396,0.274-2.085,0.274c-3.574,0-6.844-2.389-7.807-6.006c-1.148-4.315,1.417-8.743,5.732-9.893l104.25-27.751
	C404.51,331.849,408.94,334.414,410.089,338.728z M508.658,283.13l-31.971,42.579c-3.825,5.098-11.139,7.054-17.012,4.542h-0.001
	c-3.468-1.483-5.994-4.33-6.933-7.812l-6.176-22.901L76.558,399.08l-5.233,1.394c-2.02,0.537-4.042,0.959-6.063,1.269
	c6.32,9.805,17.285,15.942,29.531,15.942h323.78c19.347,0,35.087-15.612,35.087-34.804v-28.234c0-4.466,3.62-8.084,8.084-8.084
	c4.465,0,8.084,3.618,8.084,8.084v28.234c0,28.106-22.993,50.973-51.255,50.973H94.793c-21.348,0-40.038-12.814-47.702-32.279
	c-21.09-3.635-39.235-19.057-45.134-40.925c-3.907-14.488-1.924-29.631,5.587-42.642c7.547-13.071,19.756-22.423,34.387-26.345
	l1.607-0.469V140.132c-0.001-0.094-0.001-0.189,0-0.283V129.12c0-28.106,22.993-50.973,51.255-50.973h323.78
	c28.262,0,51.255,22.866,51.255,50.973v13.83c0.001,0.094,0.001,0.188,0,0.281v74.169c0,4.466-3.62,8.084-8.084,8.084
	c-4.465,0-8.084-3.618-8.084-8.084v-59.957l-161.796,97.952c-19.067,11.543-42.806,11.628-61.955,0.22L59.707,154.223v208.999
	c0,4.466-3.62,8.084-8.084,8.084s-8.084-3.618-8.084-8.084v-55.162c-9.312,3.154-17.053,9.478-21.991,18.031
	c-5.346,9.26-6.758,20.037-3.979,30.346c5.774,21.409,28.026,34.155,49.597,28.41l5.213-1.387l369.974-99.534l-8.318-30.84
	c-0.942-3.495-0.181-7.233,2.088-10.255c3.828-5.098,11.142-7.053,17.012-4.542l49.117,20.994c4.653,1.989,8.024,5.751,9.247,10.322
	C512.721,274.168,511.685,279.097,508.658,283.13z M59.707,135.404l178.477,106.32c14.003,8.342,31.363,8.281,45.307-0.161
	l170.169-103.02v-9.423c0-19.192-15.739-34.804-35.087-34.804H94.793c-19.347,0-35.087,15.612-35.087,34.804
	C59.707,129.121,59.707,135.404,59.707,135.404z M495.355,273.919l-44.031-18.82l15.371,56.99L495.355,273.919z M295.946,289.88
	l-1.042,0.278c-4.314,1.149-6.879,5.579-5.729,9.894c0.965,3.616,4.233,6.004,7.806,6.004c0.689,0,1.391-0.089,2.087-0.275
	l1.042-0.278c4.314-1.149,6.879-5.579,5.729-9.894C304.689,291.295,300.263,288.726,295.946,289.88z M255.296,300.701l-1.042,0.277
	c-4.315,1.146-6.885,5.573-5.739,9.889c0.961,3.62,4.232,6.011,7.808,6.011c0.687,0,1.385-0.088,2.08-0.273l1.042-0.277
	c4.315-1.146,6.884-5.573,5.739-9.889S259.613,299.557,255.296,300.701z M264.678,369.07l-1.042,0.277
	c-4.315,1.146-6.884,5.573-5.739,9.889c0.961,3.62,4.232,6.011,7.808,6.011c0.687,0,1.385-0.088,2.08-0.273l1.042-0.277
	c4.315-1.146,6.885-5.573,5.739-9.889C273.421,370.495,268.995,367.929,264.678,369.07z M400.197,262.127l-72.975,19.426
	c-4.315,1.149-6.881,5.578-5.732,9.893c0.964,3.617,4.232,6.006,7.807,6.006c0.689,0,1.388-0.088,2.085-0.274l72.975-19.426
	c4.315-1.149,6.881-5.578,5.732-9.893C408.94,263.545,404.51,260.979,400.197,262.127z"/>
<g>
</g>
<g>
</g>
<g>
</g>
<g>
</g>
<g>
</g>
<g>
</g>
<g>
</g>
<g>
</g>
<g>
</g>
<g>
</g>
<g>
</g>
<g>
</g>
<g>
</g>
<g>
</g>
<g>
</g>
</svg>
